# xmcd
#
# Track frame offsets:
#	150
#	16532
#	31083
#	50330
#	64543
#	80570
#	94633
#	112028
#	131128
#	148150
#	164120
#	180058
#	194518
#	208680
#
# Disc length: 2971 seconds
#
# Revision: 1
# Processed by: cddbd v1.4PL0 Copyright (c) Steve Scherf et al.
# Submitted via: audiograbber 1.81.01
#
DISCID=bb0b990e
DTITLE=Nockalm Quintett - Geh niemals fort
DYEAR=1900
DGENRE=
TTITLE0=Geh niemals fort
TTITLE1=Die Nummer eins in meinem Leben
TTITLE2=Wann kommst Du wieder
TTITLE3=Denk' an Ibiza
TTITLE4=Der Sommerwind will keine Tränen sehn
TTITLE5=Die Liebe siegt
TTITLE6=Gib mir als Souvenir ein kleines Bild von dir
TTITLE7=Schwarzer Sand von Santa Cruz
TTITLE8=Gib mir deine Liebe
TTITLE9=Nur einmal noch an Engel glauben
TTITLE10=Weine nicht um ihn
TTITLE11=Angie Blue
TTITLE12=und du, du bleibst für immer
TTITLE13=Gib mir a Busserl
EXTD=
EXTT0=
EXTT1=
EXTT2=
EXTT3=
EXTT4=
EXTT5=
EXTT6=
EXTT7=
EXTT8=
EXTT9=
EXTT10=
EXTT11=
EXTT12=
EXTT13=
PLAYORDER=
